<svg id="my-svg" width="100%" xmlns="http://www.w3.org/2000/svg" xmlns:xlink="http://www.w3.org/1999/xlink" style="max-width: 1435.5px; background-color: rgb(237, 230, 214);" viewBox="-56.5 -10 1435.5 2109" role="graphics-document document" aria-roledescription="sequence"><g><rect x="1069" y="2023" fill="#eaeaea" stroke="#666" width="260" height="65" name="DB" rx="3" ry="3" class="actor actor-bottom"/><text x="1199" y="2055.5" dominant-baseline="central" alignment-baseline="central" class="actor actor-box" style="text-anchor: middle; font-size: 16px; font-weight: 400;"><tspan x="1199" dy="0">PostgreSQL</tspan></text></g><g><rect x="733" y="2023" fill="#eaeaea" stroke="#666" width="260" height="65" name="A" rx="3" ry="3" class="actor actor-bottom"/><text x="863" y="2055.5" dominant-baseline="central" alignment-baseline="central" class="actor actor-box" style="text-anchor: middle; font-size: 16px; font-weight: 400;"><tspan x="863" dy="-8">api</tspan></text><text x="863" y="2055.5" dominant-baseline="central" alignment-baseline="central" class="actor actor-box" style="text-anchor: middle; font-size: 16px; font-weight: 400;"><tspan x="863" dy="8">Express + Better Auth</tspan></text></g><g><rect x="319" y="2023" fill="#eaeaea" stroke="#666" width="260" height="65" name="W" rx="3" ry="3" class="actor actor-bottom"/><text x="449" y="2055.5" dominant-baseline="central" alignment-baseline="central" class="actor actor-box" style="text-anchor: middle; font-size: 16px; font-weight: 400;"><tspan x="449" dy="-8">web</tspan></text><text x="449" y="2055.5" dominant-baseline="central" alignment-baseline="central" class="actor actor-box" style="text-anchor: middle; font-size: 16px; font-weight: 400;"><tspan x="449" dy="8">Next.js Server Components</tspan></text></g><g/><g><line id="actor3" x1="1199" y1="65" x2="1199" y2="2023" class="actor-line 200" stroke-width="0.5px" stroke="#999" name="DB" data-et="life-line" data-id="DB"/><g id="root-3" data-et="participant" data-type="participant" data-id="DB"><rect x="1069" y="0" fill="#eaeaea" stroke="#666" width="260" height="65" name="DB" rx="3" ry="3" class="actor actor-top"/><text x="1199" y="32.5" dominant-baseline="central" alignment-baseline="central" class="actor actor-box" style="text-anchor: middle; font-size: 16px; font-weight: 400;"><tspan x="1199" dy="0">PostgreSQL</tspan></text></g></g><g><line id="actor2" x1="863" y1="65" x2="863" y2="2023" class="actor-line 200" stroke-width="0.5px" stroke="#999" name="A" data-et="life-line" data-id="A"/><g id="root-2" data-et="participant" data-type="participant" data-id="A"><rect x="733" y="0" fill="#eaeaea" stroke="#666" width="260" height="65" name="A" rx="3" ry="3" class="actor actor-top"/><text x="863" y="32.5" dominant-baseline="central" alignment-baseline="central" class="actor actor-box" style="text-anchor: middle; font-size: 16px; font-weight: 400;"><tspan x="863" dy="-8">api</tspan></text><text x="863" y="32.5" dominant-baseline="central" alignment-baseline="central" class="actor actor-box" style="text-anchor: middle; font-size: 16px; font-weight: 400;"><tspan x="863" dy="8">Express + Better Auth</tspan></text></g></g><g><line id="actor1" x1="449" y1="65" x2="449" y2="2023" class="actor-line 200" stroke-width="0.5px" stroke="#999" name="W" data-et="life-line" data-id="W"/><g id="root-1" data-et="participant" data-type="participant" data-id="W"><rect x="319" y="0" fill="#eaeaea" stroke="#666" width="260" height="65" name="W" rx="3" ry="3" class="actor actor-top"/><text x="449" y="32.5" dominant-baseline="central" alignment-baseline="central" class="actor actor-box" style="text-anchor: middle; font-size: 16px; font-weight: 400;"><tspan x="449" dy="-8">web</tspan></text><text x="449" y="32.5" dominant-baseline="central" alignment-baseline="central" class="actor actor-box" style="text-anchor: middle; font-size: 16px; font-weight: 400;"><tspan x="449" dy="8">Next.js Server Components</tspan></text></g></g><g><line id="actor0" x1="130" y1="80" x2="130" y2="2023" class="actor-line 200" stroke-width="0.5px" stroke="#999" name="U" data-et="life-line" data-id="U"/></g><style>#my-svg{font-family:"IBM Plex Mono",ui-monospace,SFMono-Regular,Menlo,monospace;font-size:15px;fill:#26231f;}@keyframes edge-animation-frame{from{stroke-dashoffset:0;}}@keyframes dash{to{stroke-dashoffset:0;}}#my-svg .edge-animation-slow{stroke-dasharray:9,5!important;stroke-dashoffset:900;animation:dash 50s linear infinite;stroke-linecap:round;}#my-svg .edge-animation-fast{stroke-dasharray:9,5!important;stroke-dashoffset:900;animation:dash 20s linear infinite;stroke-linecap:round;}#my-svg .error-icon{fill:#ede6d6;}#my-svg .error-text{fill:#121929;stroke:#121929;}#my-svg .edge-thickness-normal{stroke-width:1px;}#my-svg .edge-thickness-thick{stroke-width:3.5px;}#my-svg .edge-pattern-solid{stroke-dasharray:0;}#my-svg .edge-thickness-invisible{stroke-width:0;fill:none;}#my-svg .edge-pattern-dashed{stroke-dasharray:3;}#my-svg .edge-pattern-dotted{stroke-dasharray:2;}#my-svg .marker{fill:#8a7a5e;stroke:#8a7a5e;}#my-svg .marker.cross{stroke:#8a7a5e;}#my-svg svg{font-family:"IBM Plex Mono",ui-monospace,SFMono-Regular,Menlo,monospace;font-size:15px;}#my-svg p{margin:0;}#my-svg .actor{stroke:#26231f;fill:#3c4a3a;stroke-width:1;}#my-svg rect.actor.outer-path[data-look="neo"]{filter:drop-shadow( 1px 2px 2px rgba(185,185,185,1));}#my-svg rect.note[data-look="neo"]{stroke:#26231f;fill:#b98a44;filter:drop-shadow( 1px 2px 2px rgba(185,185,185,1));}#my-svg text.actor&gt;tspan{fill:#ede6d6;stroke:none;}#my-svg .actor-line{stroke:#8a7a5e;}#my-svg .innerArc{stroke-width:1.5;stroke-dasharray:none;}#my-svg .messageLine0{stroke-width:1.5;stroke-dasharray:none;stroke:#6f5f47;}#my-svg .messageLine1{stroke-width:1.5;stroke-dasharray:2,2;stroke:#6f5f47;}#my-svg [id$="-arrowhead"] path{fill:#6f5f47;stroke:#6f5f47;}#my-svg .sequenceNumber{fill:#ede6d6;}#my-svg [id$="-sequencenumber"]{fill:#6f5f47;}#my-svg [id$="-crosshead"] path{fill:#6f5f47;stroke:#6f5f47;}#my-svg .messageText{fill:#26231f;stroke:none;}#my-svg .labelBox{stroke:#26231f;fill:#b98a44;filter:none;}#my-svg .labelText,#my-svg .labelText&gt;tspan{fill:#26231f;stroke:none;}#my-svg .loopText,#my-svg .loopText&gt;tspan{fill:#26231f;stroke:none;}#my-svg .sectionTitle,#my-svg .sectionTitle&gt;tspan{fill:#26231f;stroke:none;}#my-svg .loopLine{stroke-width:2px;stroke-dasharray:2,2;stroke:#26231f;fill:#26231f;}#my-svg .note{stroke:#26231f;fill:#b98a44;}#my-svg .noteText,#my-svg .noteText&gt;tspan{fill:#26231f;stroke:none;font-weight:normal;}#my-svg .activation0{fill:#d8cdb4;stroke:#26231f;}#my-svg .activation1{fill:#d8cdb4;stroke:#26231f;}#my-svg .activation2{fill:#d8cdb4;stroke:#26231f;}#my-svg .actorPopupMenu{position:absolute;}#my-svg .actorPopupMenuPanel{position:absolute;fill:#3c4a3a;box-shadow:0px 8px 16px 0px rgba(0,0,0,0.2);filter:drop-shadow(3px 5px 2px rgb(0 0 0 / 0.4));}#my-svg .actor-man circle,#my-svg line{fill:#3c4a3a;stroke-width:2px;}#my-svg g rect.rect{filter:drop-shadow( 1px 2px 2px rgba(185,185,185,1));stroke:#26231f;}#my-svg .node .neo-node{stroke:#26231f;}#my-svg [data-look="neo"].node rect,#my-svg [data-look="neo"].cluster rect,#my-svg [data-look="neo"].node polygon{stroke:url(#my-svg-gradient);filter:drop-shadow( 1px 2px 2px rgba(185,185,185,1));}#my-svg [data-look="neo"].swimlane.cluster rect{filter:none;}#my-svg [data-look="neo"].node path{stroke:url(#my-svg-gradient);stroke-width:1px;}#my-svg [data-look="neo"].node .outer-path{filter:drop-shadow( 1px 2px 2px rgba(185,185,185,1));}#my-svg [data-look="neo"].node .neo-line path{stroke:#26231f;filter:none;}#my-svg [data-look="neo"].node circle{stroke:url(#my-svg-gradient);filter:drop-shadow( 1px 2px 2px rgba(185,185,185,1));}#my-svg [data-look="neo"].node circle .state-start{fill:#000000;}#my-svg [data-look="neo"].icon-shape .icon{fill:url(#my-svg-gradient);filter:drop-shadow( 1px 2px 2px rgba(185,185,185,1));}#my-svg [data-look="neo"].icon-shape .icon-neo path{stroke:url(#my-svg-gradient);filter:drop-shadow( 1px 2px 2px rgba(185,185,185,1));}#my-svg :root{--mermaid-font-family:"trebuchet ms",verdana,arial,sans-serif;}</style><g/><defs><symbol id="my-svg-computer" width="24" height="24"><path transform="scale(.5)" d="M2 2v13h20v-13h-20zm18 11h-16v-9h16v9zm-10.228 6l.466-1h3.524l.467 1h-4.457zm14.228 3h-24l2-6h2.104l-1.33 4h18.45l-1.297-4h2.073l2 6zm-5-10h-14v-7h14v7z"/></symbol></defs><defs><symbol id="my-svg-database" fill-rule="evenodd" clip-rule="evenodd"><path transform="scale(.5)" d="M12.258.001l.256.004.255.005.253.008.251.01.249.012.247.015.246.016.242.019.241.02.239.023.236.024.233.027.231.028.229.031.225.032.223.034.22.036.217.038.214.04.211.041.208.043.205.045.201.046.198.048.194.05.191.051.187.053.183.054.18.056.175.057.172.059.168.06.163.061.16.063.155.064.15.066.074.033.073.033.071.034.07.034.069.035.068.035.067.035.066.035.064.036.064.036.062.036.06.036.06.037.058.037.058.037.055.038.055.038.053.038.052.038.051.039.05.039.048.039.047.039.045.04.044.04.043.04.041.04.04.041.039.041.037.041.036.041.034.041.033.042.032.042.03.042.029.042.027.042.026.043.024.043.023.043.021.043.02.043.018.044.017.043.015.044.013.044.012.044.011.045.009.044.007.045.006.045.004.045.002.045.001.045v17l-.001.045-.002.045-.004.045-.006.045-.007.045-.009.044-.011.045-.012.044-.013.044-.015.044-.017.043-.018.044-.02.043-.021.043-.023.043-.024.043-.026.043-.027.042-.029.042-.03.042-.032.042-.033.042-.034.041-.036.041-.037.041-.039.041-.04.041-.041.04-.043.04-.044.04-.045.04-.047.039-.048.039-.05.039-.051.039-.052.038-.053.038-.055.038-.055.038-.058.037-.058.037-.06.037-.06.036-.062.036-.064.036-.064.036-.066.035-.067.035-.068.035-.069.035-.07.034-.071.034-.073.033-.074.033-.15.066-.155.064-.16.063-.163.061-.168.06-.172.059-.175.057-.18.056-.183.054-.187.053-.191.051-.194.05-.198.048-.201.046-.205.045-.208.043-.211.041-.214.04-.217.038-.22.036-.223.034-.225.032-.229.031-.231.028-.233.027-.236.024-.239.023-.241.02-.242.019-.246.016-.247.015-.249.012-.251.01-.253.008-.255.005-.256.004-.258.001-.258-.001-.256-.004-.255-.005-.253-.008-.251-.01-.249-.012-.247-.015-.245-.016-.243-.019-.241-.02-.238-.023-.236-.024-.234-.027-.231-.028-.228-.031-.226-.032-.223-.034-.22-.036-.217-.038-.214-.04-.211-.041-.208-.043-.204-.045-.201-.046-.198-.048-.195-.05-.19-.051-.187-.053-.184-.054-.179-.056-.176-.057-.172-.059-.167-.06-.164-.061-.159-.063-.155-.064-.151-.066-.074-.033-.072-.033-.072-.034-.07-.034-.069-.035-.068-.035-.067-.035-.066-.035-.064-.036-.063-.036-.062-.036-.061-.036-.06-.037-.058-.037-.057-.037-.056-.038-.055-.038-.053-.038-.052-.038-.051-.039-.049-.039-.049-.039-.046-.039-.046-.04-.044-.04-.043-.04-.041-.04-.04-.041-.039-.041-.037-.041-.036-.041-.034-.041-.033-.042-.032-.042-.03-.042-.029-.042-.027-.042-.026-.043-.024-.043-.023-.043-.021-.043-.02-.043-.018-.044-.017-.043-.015-.044-.013-.044-.012-.044-.011-.045-.009-.044-.007-.045-.006-.045-.004-.045-.002-.045-.001-.045v-17l.001-.045.002-.045.004-.045.006-.045.007-.045.009-.044.011-.045.012-.044.013-.044.015-.044.017-.043.018-.044.02-.043.021-.043.023-.043.024-.043.026-.043.027-.042.029-.042.03-.042.032-.042.033-.042.034-.041.036-.041.037-.041.039-.041.04-.041.041-.04.043-.04.044-.04.046-.04.046-.039.049-.039.049-.039.051-.039.052-.038.053-.038.055-.038.056-.038.057-.037.058-.037.06-.037.061-.036.062-.036.063-.036.064-.036.066-.035.067-.035.068-.035.069-.035.07-.034.072-.034.072-.033.074-.033.151-.066.155-.064.159-.063.164-.061.167-.06.172-.059.176-.057.179-.056.184-.054.187-.053.19-.051.195-.05.198-.048.201-.046.204-.045.208-.043.211-.041.214-.04.217-.038.22-.036.223-.034.226-.032.228-.031.231-.028.234-.027.236-.024.238-.023.241-.02.243-.019.245-.016.247-.015.249-.012.251-.01.253-.008.255-.005.256-.004.258-.001.258.001zm-9.258 20.499v.01l.001.021.003.021.004.022.005.021.006.022.007.022.009.023.01.022.011.023.012.023.013.023.015.023.016.024.017.023.018.024.019.024.021.024.022.025.023.024.024.025.052.049.056.05.061.051.066.051.07.051.075.051.079.052.084.052.088.052.092.052.097.052.102.051.105.052.11.052.114.051.119.051.123.051.127.05.131.05.135.05.139.048.144.049.147.047.152.047.155.047.16.045.163.045.167.043.171.043.176.041.178.041.183.039.187.039.19.037.194.035.197.035.202.033.204.031.209.03.212.029.216.027.219.025.222.024.226.021.23.02.233.018.236.016.24.015.243.012.246.01.249.008.253.005.256.004.259.001.26-.001.257-.004.254-.005.25-.008.247-.011.244-.012.241-.014.237-.016.233-.018.231-.021.226-.021.224-.024.22-.026.216-.027.212-.028.21-.031.205-.031.202-.034.198-.034.194-.036.191-.037.187-.039.183-.04.179-.04.175-.042.172-.043.168-.044.163-.045.16-.046.155-.046.152-.047.148-.048.143-.049.139-.049.136-.05.131-.05.126-.05.123-.051.118-.052.114-.051.11-.052.106-.052.101-.052.096-.052.092-.052.088-.053.083-.051.079-.052.074-.052.07-.051.065-.051.06-.051.056-.05.051-.05.023-.024.023-.025.021-.024.02-.024.019-.024.018-.024.017-.024.015-.023.014-.024.013-.023.012-.023.01-.023.01-.022.008-.022.006-.022.006-.022.004-.022.004-.021.001-.021.001-.021v-4.127l-.077.055-.08.053-.083.054-.085.053-.087.052-.09.052-.093.051-.095.05-.097.05-.1.049-.102.049-.105.048-.106.047-.109.047-.111.046-.114.045-.115.045-.118.044-.12.043-.122.042-.124.042-.126.041-.128.04-.13.04-.132.038-.134.038-.135.037-.138.037-.139.035-.142.035-.143.034-.144.033-.147.032-.148.031-.15.03-.151.03-.153.029-.154.027-.156.027-.158.026-.159.025-.161.024-.162.023-.163.022-.165.021-.166.02-.167.019-.169.018-.169.017-.171.016-.173.015-.173.014-.175.013-.175.012-.177.011-.178.01-.179.008-.179.008-.181.006-.182.005-.182.004-.184.003-.184.002h-.37l-.184-.002-.184-.003-.182-.004-.182-.005-.181-.006-.179-.008-.179-.008-.178-.01-.176-.011-.176-.012-.175-.013-.173-.014-.172-.015-.171-.016-.17-.017-.169-.018-.167-.019-.166-.02-.165-.021-.163-.022-.162-.023-.161-.024-.159-.025-.157-.026-.156-.027-.155-.027-.153-.029-.151-.03-.15-.03-.148-.031-.146-.032-.145-.033-.143-.034-.141-.035-.14-.035-.137-.037-.136-.037-.134-.038-.132-.038-.13-.04-.128-.04-.126-.041-.124-.042-.122-.042-.12-.044-.117-.043-.116-.045-.113-.045-.112-.046-.109-.047-.106-.047-.105-.048-.102-.049-.1-.049-.097-.05-.095-.05-.093-.052-.09-.051-.087-.052-.085-.053-.083-.054-.08-.054-.077-.054v4.127zm0-5.654v.011l.001.021.003.021.004.021.005.022.006.022.007.022.009.022.01.022.011.023.012.023.013.023.015.024.016.023.017.024.018.024.019.024.021.024.022.024.023.025.024.024.052.05.056.05.061.05.066.051.07.051.075.052.079.051.084.052.088.052.092.052.097.052.102.052.105.052.11.051.114.051.119.052.123.05.127.051.131.05.135.049.139.049.144.048.147.048.152.047.155.046.16.045.163.045.167.044.171.042.176.042.178.04.183.04.187.038.19.037.194.036.197.034.202.033.204.032.209.03.212.028.216.027.219.025.222.024.226.022.23.02.233.018.236.016.24.014.243.012.246.01.249.008.253.006.256.003.259.001.26-.001.257-.003.254-.006.25-.008.247-.01.244-.012.241-.015.237-.016.233-.018.231-.02.226-.022.224-.024.22-.025.216-.027.212-.029.21-.03.205-.032.202-.033.198-.035.194-.036.191-.037.187-.039.183-.039.179-.041.175-.042.172-.043.168-.044.163-.045.16-.045.155-.047.152-.047.148-.048.143-.048.139-.05.136-.049.131-.05.126-.051.123-.051.118-.051.114-.052.11-.052.106-.052.101-.052.096-.052.092-.052.088-.052.083-.052.079-.052.074-.051.07-.052.065-.051.06-.05.056-.051.051-.049.023-.025.023-.024.021-.025.02-.024.019-.024.018-.024.017-.024.015-.023.014-.023.013-.024.012-.022.01-.023.01-.023.008-.022.006-.022.006-.022.004-.021.004-.022.001-.021.001-.021v-4.139l-.077.054-.08.054-.083.054-.085.052-.087.053-.09.051-.093.051-.095.051-.097.05-.1.049-.102.049-.105.048-.106.047-.109.047-.111.046-.114.045-.115.044-.118.044-.12.044-.122.042-.124.042-.126.041-.128.04-.13.039-.132.039-.134.038-.135.037-.138.036-.139.036-.142.035-.143.033-.144.033-.147.033-.148.031-.15.03-.151.03-.153.028-.154.028-.156.027-.158.026-.159.025-.161.024-.162.023-.163.022-.165.021-.166.02-.167.019-.169.018-.169.017-.171.016-.173.015-.173.014-.175.013-.175.012-.177.011-.178.009-.179.009-.179.007-.181.007-.182.005-.182.004-.184.003-.184.002h-.37l-.184-.002-.184-.003-.182-.004-.182-.005-.181-.007-.179-.007-.179-.009-.178-.009-.176-.011-.176-.012-.175-.013-.173-.014-.172-.015-.171-.016-.17-.017-.169-.018-.167-.019-.166-.02-.165-.021-.163-.022-.162-.023-.161-.024-.159-.025-.157-.026-.156-.027-.155-.028-.153-.028-.151-.03-.15-.03-.148-.031-.146-.033-.145-.033-.143-.033-.141-.035-.14-.036-.137-.036-.136-.037-.134-.038-.132-.039-.13-.039-.128-.04-.126-.041-.124-.042-.122-.043-.12-.043-.117-.044-.116-.044-.113-.046-.112-.046-.109-.046-.106-.047-.105-.048-.102-.049-.1-.049-.097-.05-.095-.051-.093-.051-.09-.051-.087-.053-.085-.052-.083-.054-.08-.054-.077-.054v4.139zm0-5.666v.011l.001.02.003.022.004.021.005.022.006.021.007.022.009.023.01.022.011.023.012.023.013.023.015.023.016.024.017.024.018.023.019.024.021.025.022.024.023.024.024.025.052.05.056.05.061.05.066.051.07.051.075.052.079.051.084.052.088.052.092.052.097.052.102.052.105.051.11.052.114.051.119.051.123.051.127.05.131.05.135.05.139.049.144.048.147.048.152.047.155.046.16.045.163.045.167.043.171.043.176.042.178.04.183.04.187.038.19.037.194.036.197.034.202.033.204.032.209.03.212.028.216.027.219.025.222.024.226.021.23.02.233.018.236.017.24.014.243.012.246.01.249.008.253.006.256.003.259.001.26-.001.257-.003.254-.006.25-.008.247-.01.244-.013.241-.014.237-.016.233-.018.231-.02.226-.022.224-.024.22-.025.216-.027.212-.029.21-.03.205-.032.202-.033.198-.035.194-.036.191-.037.187-.039.183-.039.179-.041.175-.042.172-.043.168-.044.163-.045.16-.045.155-.047.152-.047.148-.048.143-.049.139-.049.136-.049.131-.051.126-.05.123-.051.118-.052.114-.051.11-.052.106-.052.101-.052.096-.052.092-.052.088-.052.083-.052.079-.052.074-.052.07-.051.065-.051.06-.051.056-.05.051-.049.023-.025.023-.025.021-.024.02-.024.019-.024.018-.024.017-.024.015-.023.014-.024.013-.023.012-.023.01-.022.01-.023.008-.022.006-.022.006-.022.004-.022.004-.021.001-.021.001-.021v-4.153l-.077.054-.08.054-.083.053-.085.053-.087.053-.09.051-.093.051-.095.051-.097.05-.1.049-.102.048-.105.048-.106.048-.109.046-.111.046-.114.046-.115.044-.118.044-.12.043-.122.043-.124.042-.126.041-.128.04-.13.039-.132.039-.134.038-.135.037-.138.036-.139.036-.142.034-.143.034-.144.033-.147.032-.148.032-.15.03-.151.03-.153.028-.154.028-.156.027-.158.026-.159.024-.161.024-.162.023-.163.023-.165.021-.166.02-.167.019-.169.018-.169.017-.171.016-.173.015-.173.014-.175.013-.175.012-.177.01-.178.01-.179.009-.179.007-.181.006-.182.006-.182.004-.184.003-.184.001-.185.001-.185-.001-.184-.001-.184-.003-.182-.004-.182-.006-.181-.006-.179-.007-.179-.009-.178-.01-.176-.01-.176-.012-.175-.013-.173-.014-.172-.015-.171-.016-.17-.017-.169-.018-.167-.019-.166-.02-.165-.021-.163-.023-.162-.023-.161-.024-.159-.024-.157-.026-.156-.027-.155-.028-.153-.028-.151-.03-.15-.03-.148-.032-.146-.032-.145-.033-.143-.034-.141-.034-.14-.036-.137-.036-.136-.037-.134-.038-.132-.039-.13-.039-.128-.041-.126-.041-.124-.041-.122-.043-.12-.043-.117-.044-.116-.044-.113-.046-.112-.046-.109-.046-.106-.048-.105-.048-.102-.048-.1-.05-.097-.049-.095-.051-.093-.051-.09-.052-.087-.052-.085-.053-.083-.053-.08-.054-.077-.054v4.153zm8.74-8.179l-.257.004-.254.005-.25.008-.247.011-.244.012-.241.014-.237.016-.233.018-.231.021-.226.022-.224.023-.22.026-.216.027-.212.028-.21.031-.205.032-.202.033-.198.034-.194.036-.191.038-.187.038-.183.04-.179.041-.175.042-.172.043-.168.043-.163.045-.16.046-.155.046-.152.048-.148.048-.143.048-.139.049-.136.05-.131.05-.126.051-.123.051-.118.051-.114.052-.11.052-.106.052-.101.052-.096.052-.092.052-.088.052-.083.052-.079.052-.074.051-.07.052-.065.051-.06.05-.056.05-.051.05-.023.025-.023.024-.021.024-.02.025-.019.024-.018.024-.017.023-.015.024-.014.023-.013.023-.012.023-.01.023-.01.022-.008.022-.006.023-.006.021-.004.022-.004.021-.001.021-.001.021.001.021.001.021.004.021.004.022.006.021.006.023.008.022.01.022.01.023.012.023.013.023.014.023.015.024.017.023.018.024.019.024.02.025.021.024.023.024.023.025.051.05.056.05.06.05.065.051.07.052.074.051.079.052.083.052.088.052.092.052.096.052.101.052.106.052.11.052.114.052.118.051.123.051.126.051.131.05.136.05.139.049.143.048.148.048.152.048.155.046.16.046.163.045.168.043.172.043.175.042.179.041.183.04.187.038.191.038.194.036.198.034.202.033.205.032.21.031.212.028.216.027.22.026.224.023.226.022.231.021.233.018.237.016.241.014.244.012.247.011.25.008.254.005.257.004.26.001.26-.001.257-.004.254-.005.25-.008.247-.011.244-.012.241-.014.237-.016.233-.018.231-.021.226-.022.224-.023.22-.026.216-.027.212-.028.21-.031.205-.032.202-.033.198-.034.194-.036.191-.038.187-.038.183-.04.179-.041.175-.042.172-.043.168-.043.163-.045.16-.046.155-.046.152-.048.148-.048.143-.048.139-.049.136-.05.131-.05.126-.051.123-.051.118-.051.114-.052.11-.052.106-.052.101-.052.096-.052.092-.052.088-.052.083-.052.079-.052.074-.051.07-.052.065-.051.06-.05.056-.05.051-.05.023-.025.023-.024.021-.024.02-.025.019-.024.018-.024.017-.023.015-.024.014-.023.013-.023.012-.023.01-.023.01-.022.008-.022.006-.023.006-.021.004-.022.004-.021.001-.021.001-.021-.001-.021-.001-.021-.004-.021-.004-.022-.006-.021-.006-.023-.008-.022-.01-.022-.01-.023-.012-.023-.013-.023-.014-.023-.015-.024-.017-.023-.018-.024-.019-.024-.02-.025-.021-.024-.023-.024-.023-.025-.051-.05-.056-.05-.06-.05-.065-.051-.07-.052-.074-.051-.079-.052-.083-.052-.088-.052-.092-.052-.096-.052-.101-.052-.106-.052-.11-.052-.114-.052-.118-.051-.123-.051-.126-.051-.131-.05-.136-.05-.139-.049-.143-.048-.148-.048-.152-.048-.155-.046-.16-.046-.163-.045-.168-.043-.172-.043-.175-.042-.179-.041-.183-.04-.187-.038-.191-.038-.194-.036-.198-.034-.202-.033-.205-.032-.21-.031-.212-.028-.216-.027-.22-.026-.224-.023-.226-.022-.231-.021-.233-.018-.237-.016-.241-.014-.244-.012-.247-.011-.25-.008-.254-.005-.257-.004-.26-.001-.26.001z"/></symbol></defs><defs><symbol id="my-svg-clock" width="24" height="24"><path transform="scale(.5)" d="M12 2c5.514 0 10 4.486 10 10s-4.486 10-10 10-10-4.486-10-10 4.486-10 10-10zm0-2c-6.627 0-12 5.373-12 12s5.373 12 12 12 12-5.373 12-12-5.373-12-12-12zm5.848 12.459c.202.038.202.333.001.372-1.907.361-6.045 1.111-6.547 1.111-.719 0-1.301-.582-1.301-1.301 0-.512.77-5.447 1.125-7.445.034-.192.312-.181.343.014l.985 6.238 5.394 1.011z"/></symbol></defs><defs><marker id="my-svg-arrowhead" refX="7.9" refY="5" markerUnits="userSpaceOnUse" markerWidth="12" markerHeight="12" orient="auto-start-reverse"><path d="M -1 0 L 10 5 L 0 10 z"/></marker></defs><defs><marker id="my-svg-crosshead" markerWidth="15" markerHeight="8" orient="auto" refX="4" refY="4.5"><path fill="none" stroke="#000000" stroke-width="1pt" d="M 1,2 L 6,7 M 6,2 L 1,7" style="stroke-dasharray: 0, 0;"/></marker></defs><defs><marker id="my-svg-filled-head" refX="15.5" refY="7" markerWidth="20" markerHeight="28" orient="auto"><path d="M 18,7 L9,13 L14,7 L9,1 Z"/></marker></defs><defs><marker id="my-svg-sequencenumber" refX="15" refY="15" markerWidth="60" markerHeight="40" orient="auto"><circle cx="15" cy="15" r="6"/></marker></defs><defs><marker id="my-svg-solidTopArrowHead" refX="7.9" refY="7.25" markerUnits="userSpaceOnUse" markerWidth="12" markerHeight="12" orient="auto-start-reverse"><path d="M 0 0 L 10 8 L 0 8 z"/></marker></defs><defs><marker id="my-svg-solidBottomArrowHead" refX="7.9" refY="0.75" markerUnits="userSpaceOnUse" markerWidth="12" markerHeight="12" orient="auto-start-reverse"><path d="M 0 0 L 10 0 L 0 8 z"/></marker></defs><defs><marker id="my-svg-stickTopArrowHead" refX="7.5" refY="7" markerUnits="userSpaceOnUse" markerWidth="12" markerHeight="12" orient="auto-start-reverse"><path d="M 0 0 L 7 7" stroke="black" stroke-width="1.5" fill="none"/></marker></defs><defs><marker id="my-svg-stickBottomArrowHead" refX="7.5" refY="0" markerUnits="userSpaceOnUse" markerWidth="12" markerHeight="12" orient="auto-start-reverse"><path d="M 0 7 L 7 0" stroke="black" stroke-width="1.5" fill="none"/></marker></defs><g data-et="note" data-id="i1"><rect x="105" y="75" fill="#EDF2AE" stroke="#666" width="1119" height="39" class="note"/><text x="665" y="80" text-anchor="middle" dominant-baseline="middle" alignment-baseline="middle" class="noteText" dy="1em" style="font-size: 16px; font-weight: 400;"><tspan x="665">Sign-up (email + password). autoSignIn creates a session immediately.</tspan></text></g><g data-et="note" data-id="i8"><rect x="105" y="418" fill="#EDF2AE" stroke="#666" width="369" height="58" class="note"/><text x="290" y="423" text-anchor="middle" dominant-baseline="middle" alignment-baseline="middle" class="noteText" dy="1em" style="font-size: 16px; font-weight: 400;"><tspan x="290">router.refresh() is required -</tspan></text><text x="290" y="442" text-anchor="middle" dominant-baseline="middle" alignment-baseline="middle" class="noteText" dy="1em" style="font-size: 16px; font-weight: 400;"><tspan x="290">push alone leaves nav stale</tspan></text></g><g data-et="note" data-id="i9"><rect x="105" y="486" fill="#EDF2AE" stroke="#666" width="1119" height="39" class="note"/><text x="665" y="491" text-anchor="middle" dominant-baseline="middle" alignment-baseline="middle" class="noteText" dy="1em" style="font-size: 16px; font-weight: 400;"><tspan x="665">Sign-in (existing account)</tspan></text></g><g data-et="note" data-id="i16"><rect x="105" y="829" fill="#EDF2AE" stroke="#666" width="1119" height="39" class="note"/><text x="665" y="834" text-anchor="middle" dominant-baseline="middle" alignment-baseline="middle" class="noteText" dy="1em" style="font-size: 16px; font-weight: 400;"><tspan x="665">Layer 1 - checkout page gate (Server Component, not a middleware)</tspan></text></g><g data-et="control-structure" data-id="i26"><line x1="119" y1="1098" x2="460" y2="1098" class="loopLine"/><line x1="460" y1="1098" x2="460" y2="1276" class="loopLine"/><line x1="119" y1="1276" x2="460" y2="1276" class="loopLine"/><line x1="119" y1="1098" x2="119" y2="1276" class="loopLine"/><line x1="119" y1="1192" x2="460" y2="1192" class="loopLine" style="stroke-dasharray: 3, 3;"/><polygon points="119,1098 169,1098 169,1111 160.6,1118 119,1118" class="labelBox"/><text x="144" y="1111" text-anchor="middle" dominant-baseline="middle" alignment-baseline="middle" class="labelText" style="font-size: 16px; font-weight: 400;">alt</text><text x="314.5" y="1116" text-anchor="middle" class="loopText" style="font-size: 16px; font-weight: 400;"><tspan x="314.5">[no session]</tspan></text><text x="289.5" y="1210" text-anchor="middle" class="sectionTitle" style="font-size: 16px; font-weight: 400;">[session valid]</text></g><g data-et="note" data-id="i27"><rect x="105" y="1286" fill="#EDF2AE" stroke="#666" width="1119" height="39" class="note"/><text x="665" y="1291" text-anchor="middle" dominant-baseline="middle" alignment-baseline="middle" class="noteText" dy="1em" style="font-size: 16px; font-weight: 400;"><tspan x="665">Layers 2 and 3 - requireAuth middleware, checked independently per endpoint</tspan></text></g><g data-et="note" data-id="i36"><rect x="838" y="1749" fill="#EDF2AE" stroke="#666" width="386" height="58" class="note"/><text x="1031" y="1754" text-anchor="middle" dominant-baseline="middle" alignment-baseline="middle" class="noteText" dy="1em" style="font-size: 16px; font-weight: 400;"><tspan x="1031">continues into checkout.service -</tspan></text><text x="1031" y="1773" text-anchor="middle" dominant-baseline="middle" alignment-baseline="middle" class="noteText" dy="1em" style="font-size: 16px; font-weight: 400;"><tspan x="1031">see checkout-sequence.mmd</tspan></text></g><g data-et="control-structure" data-id="i37"><line x1="119" y1="1541" x2="1234" y2="1541" class="loopLine"/><line x1="1234" y1="1541" x2="1234" y2="1817" class="loopLine"/><line x1="119" y1="1817" x2="1234" y2="1817" class="loopLine"/><line x1="119" y1="1541" x2="119" y2="1817" class="loopLine"/><line x1="119" y1="1635" x2="1234" y2="1635" class="loopLine" style="stroke-dasharray: 3, 3;"/><polygon points="119,1541 169,1541 169,1554 160.6,1561 119,1561" class="labelBox"/><text x="144" y="1554" text-anchor="middle" dominant-baseline="middle" alignment-baseline="middle" class="labelText" style="font-size: 16px; font-weight: 400;">alt</text><text x="701.5" y="1559" text-anchor="middle" class="loopText" style="font-size: 16px; font-weight: 400;"><tspan x="701.5">[no session]</tspan></text><text x="676.5" y="1653" text-anchor="middle" class="sectionTitle" style="font-size: 16px; font-weight: 400;">[session valid]</text></g><g data-et="note" data-id="i40"><rect x="838" y="1945" fill="#EDF2AE" stroke="#666" width="386" height="58" class="note"/><text x="1031" y="1950" text-anchor="middle" dominant-baseline="middle" alignment-baseline="middle" class="noteText" dy="1em" style="font-size: 16px; font-weight: 400;"><tspan x="1031">placeOrder writes req.userId</tspan></text><text x="1031" y="1969" text-anchor="middle" dominant-baseline="middle" alignment-baseline="middle" class="noteText" dy="1em" style="font-size: 16px; font-weight: 400;"><tspan x="1031">onto the created Order</tspan></text></g><g class="actor-man actor-top" name="U" data-et="participant" data-type="actor" data-id="U" style="stroke: rgb(38, 35, 31);"><line id="actor-man-torso0" x1="130" y1="25" x2="130" y2="45"/><line id="actor-man-arms0" x1="112" y1="33" x2="148" y2="33"/><line x1="112" y1="60" x2="130" y2="45"/><line x1="130" y1="45" x2="146" y2="60"/><circle cx="130" cy="10" r="15" width="260" height="65"/><text x="130" y="67.5" dominant-baseline="central" alignment-baseline="central" class="actor actor-man" style="text-anchor: middle; font-size: 16px; font-weight: 400;"><tspan x="130" dy="0">Browser</tspan></text></g><text x="495" y="129" text-anchor="middle" dominant-baseline="middle" alignment-baseline="middle" class="messageText" dy="1em" style="font-size: 16px; font-weight: 400;">POST /api/auth/sign-up/email (name, email, password)</text><line x1="137" y1="158" x2="859" y2="158" class="messageLine0" data-et="message" data-id="i2" data-from="U" data-to="A" stroke-width="2" stroke="none" marker-end="url(#my-svg-arrowhead)" style="fill: none;"/><line x1="130" y1="158" x2="130" y2="158" stroke-width="0" marker-start="url(#my-svg-sequencenumber)"/><text x="130" y="162" font-family="sans-serif" font-size="12px" text-anchor="middle" class="sequenceNumber">1</text><text x="1030" y="173" text-anchor="middle" dominant-baseline="middle" alignment-baseline="middle" class="messageText" dy="1em" style="font-size: 16px; font-weight: 400;">create User + Account (hashed password)</text><line x1="870" y1="202" x2="1195" y2="202" class="messageLine0" data-et="message" data-id="i3" data-from="A" data-to="DB" stroke-width="2" stroke="none" marker-end="url(#my-svg-arrowhead)" style="fill: none;"/><line x1="863" y1="202" x2="863" y2="202" stroke-width="0" marker-start="url(#my-svg-sequencenumber)"/><text x="863" y="206" font-family="sans-serif" font-size="12px" text-anchor="middle" class="sequenceNumber">2</text><text x="1030" y="217" text-anchor="middle" dominant-baseline="middle" alignment-baseline="middle" class="messageText" dy="1em" style="font-size: 16px; font-weight: 400;">create Session (auto sign-in)</text><line x1="870" y1="246" x2="1195" y2="246" class="messageLine0" data-et="message" data-id="i4" data-from="A" data-to="DB" stroke-width="2" stroke="none" marker-end="url(#my-svg-arrowhead)" style="fill: none;"/><line x1="863" y1="246" x2="863" y2="246" stroke-width="0" marker-start="url(#my-svg-sequencenumber)"/><text x="863" y="250" font-family="sans-serif" font-size="12px" text-anchor="middle" class="sequenceNumber">3</text><text x="1033" y="261" text-anchor="middle" dominant-baseline="middle" alignment-baseline="middle" class="messageText" dy="1em" style="font-size: 16px; font-weight: 400;">user, session</text><line x1="1204" y1="290" x2="867" y2="290" class="messageLine1" data-et="message" data-id="i5" data-from="DB" data-to="A" stroke-width="2" stroke="none" marker-end="url(#my-svg-arrowhead)" style="stroke-dasharray: 3, 3; fill: none;"/><line x1="1199" y1="290" x2="1199" y2="290" stroke-width="0" marker-start="url(#my-svg-sequencenumber)"/><text x="1199" y="294" font-family="sans-serif" font-size="12px" text-anchor="middle" class="sequenceNumber">4</text><text x="498" y="305" text-anchor="middle" dominant-baseline="middle" alignment-baseline="middle" class="messageText" dy="1em" style="font-size: 16px; font-weight: 400;">Set-Cookie (session token)</text><line x1="868" y1="334" x2="134" y2="334" class="messageLine1" data-et="message" data-id="i6" data-from="A" data-to="U" stroke-width="2" stroke="none" marker-end="url(#my-svg-arrowhead)" style="stroke-dasharray: 3, 3; fill: none;"/><line x1="863" y1="334" x2="863" y2="334" stroke-width="0" marker-start="url(#my-svg-sequencenumber)"/><text x="863" y="338" font-family="sans-serif" font-size="12px" text-anchor="middle" class="sequenceNumber">5</text><text x="131" y="349" text-anchor="middle" dominant-baseline="middle" alignment-baseline="middle" class="messageText" dy="1em" style="font-size: 16px; font-weight: 400;">router.push("/"), router.refresh()</text><path d="M 131,378 C 191,368 191,408 131,398" class="messageLine0" data-et="message" data-id="i7" data-from="U" data-to="U" stroke-width="2" stroke="none" marker-end="url(#my-svg-arrowhead)" x1="137" style="fill: none;"/><line x1="130" y1="378" x2="130" y2="378" stroke-width="0" marker-start="url(#my-svg-sequencenumber)"/><text x="130" y="382" font-family="sans-serif" font-size="12px" text-anchor="middle" class="sequenceNumber">6</text><text x="495" y="540" text-anchor="middle" dominant-baseline="middle" alignment-baseline="middle" class="messageText" dy="1em" style="font-size: 16px; font-weight: 400;">POST /api/auth/sign-in/email (email, password)</text><line x1="137" y1="569" x2="859" y2="569" class="messageLine0" data-et="message" data-id="i10" data-from="U" data-to="A" stroke-width="2" stroke="none" marker-end="url(#my-svg-arrowhead)" style="fill: none;"/><line x1="130" y1="569" x2="130" y2="569" stroke-width="0" marker-start="url(#my-svg-sequencenumber)"/><text x="130" y="573" font-family="sans-serif" font-size="12px" text-anchor="middle" class="sequenceNumber">7</text><text x="1030" y="584" text-anchor="middle" dominant-baseline="middle" alignment-baseline="middle" class="messageText" dy="1em" style="font-size: 16px; font-weight: 400;">verify Account credentials</text><line x1="870" y1="613" x2="1195" y2="613" class="messageLine0" data-et="message" data-id="i11" data-from="A" data-to="DB" stroke-width="2" stroke="none" marker-end="url(#my-svg-arrowhead)" style="fill: none;"/><line x1="863" y1="613" x2="863" y2="613" stroke-width="0" marker-start="url(#my-svg-sequencenumber)"/><text x="863" y="617" font-family="sans-serif" font-size="12px" text-anchor="middle" class="sequenceNumber">8</text><text x="1030" y="628" text-anchor="middle" dominant-baseline="middle" alignment-baseline="middle" class="messageText" dy="1em" style="font-size: 16px; font-weight: 400;">create Session</text><line x1="870" y1="657" x2="1195" y2="657" class="messageLine0" data-et="message" data-id="i12" data-from="A" data-to="DB" stroke-width="2" stroke="none" marker-end="url(#my-svg-arrowhead)" style="fill: none;"/><line x1="863" y1="657" x2="863" y2="657" stroke-width="0" marker-start="url(#my-svg-sequencenumber)"/><text x="863" y="661" font-family="sans-serif" font-size="12px" text-anchor="middle" class="sequenceNumber">9</text><text x="1033" y="672" text-anchor="middle" dominant-baseline="middle" alignment-baseline="middle" class="messageText" dy="1em" style="font-size: 16px; font-weight: 400;">user, session</text><line x1="1204" y1="701" x2="867" y2="701" class="messageLine1" data-et="message" data-id="i13" data-from="DB" data-to="A" stroke-width="2" stroke="none" marker-end="url(#my-svg-arrowhead)" style="stroke-dasharray: 3, 3; fill: none;"/><line x1="1199" y1="701" x2="1199" y2="701" stroke-width="0" marker-start="url(#my-svg-sequencenumber)"/><text x="1199" y="705" font-family="sans-serif" font-size="12px" text-anchor="middle" class="sequenceNumber">10</text><text x="498" y="716" text-anchor="middle" dominant-baseline="middle" alignment-baseline="middle" class="messageText" dy="1em" style="font-size: 16px; font-weight: 400;">Set-Cookie (session token)</text><line x1="868" y1="745" x2="134" y2="745" class="messageLine1" data-et="message" data-id="i14" data-from="A" data-to="U" stroke-width="2" stroke="none" marker-end="url(#my-svg-arrowhead)" style="stroke-dasharray: 3, 3; fill: none;"/><line x1="863" y1="745" x2="863" y2="745" stroke-width="0" marker-start="url(#my-svg-sequencenumber)"/><text x="863" y="749" font-family="sans-serif" font-size="12px" text-anchor="middle" class="sequenceNumber">11</text><text x="131" y="760" text-anchor="middle" dominant-baseline="middle" alignment-baseline="middle" class="messageText" dy="1em" style="font-size: 16px; font-weight: 400;">router.push(redirect ?? "/"), router.refresh()</text><path d="M 131,789 C 191,779 191,819 131,809" class="messageLine0" data-et="message" data-id="i15" data-from="U" data-to="U" stroke-width="2" stroke="none" marker-end="url(#my-svg-arrowhead)" x1="137" style="fill: none;"/><line x1="130" y1="789" x2="130" y2="789" stroke-width="0" marker-start="url(#my-svg-sequencenumber)"/><text x="130" y="793" font-family="sans-serif" font-size="12px" text-anchor="middle" class="sequenceNumber">12</text><text x="288" y="883" text-anchor="middle" dominant-baseline="middle" alignment-baseline="middle" class="messageText" dy="1em" style="font-size: 16px; font-weight: 400;">GET /checkout (cookie: session token)</text><line x1="137" y1="912" x2="445" y2="912" class="messageLine0" data-et="message" data-id="i17" data-from="U" data-to="W" stroke-width="2" stroke="none" marker-end="url(#my-svg-arrowhead)" style="fill: none;"/><line x1="130" y1="912" x2="130" y2="912" stroke-width="0" marker-start="url(#my-svg-sequencenumber)"/><text x="130" y="916" font-family="sans-serif" font-size="12px" text-anchor="middle" class="sequenceNumber">13</text><text x="655" y="927" text-anchor="middle" dominant-baseline="middle" alignment-baseline="middle" class="messageText" dy="1em" style="font-size: 16px; font-weight: 400;">GET /api/auth/get-session (Cookie header forwarded)</text><line x1="456" y1="956" x2="859" y2="956" class="messageLine0" data-et="message" data-id="i18" data-from="W" data-to="A" stroke-width="2" stroke="none" marker-end="url(#my-svg-arrowhead)" style="fill: none;"/><line x1="449" y1="956" x2="449" y2="956" stroke-width="0" marker-start="url(#my-svg-sequencenumber)"/><text x="449" y="960" font-family="sans-serif" font-size="12px" text-anchor="middle" class="sequenceNumber">14</text><text x="1030" y="971" text-anchor="middle" dominant-baseline="middle" alignment-baseline="middle" class="messageText" dy="1em" style="font-size: 16px; font-weight: 400;">validate session token</text><line x1="870" y1="1000" x2="1195" y2="1000" class="messageLine0" data-et="message" data-id="i19" data-from="A" data-to="DB" stroke-width="2" stroke="none" marker-end="url(#my-svg-arrowhead)" style="fill: none;"/><line x1="863" y1="1000" x2="863" y2="1000" stroke-width="0" marker-start="url(#my-svg-sequencenumber)"/><text x="863" y="1004" font-family="sans-serif" font-size="12px" text-anchor="middle" class="sequenceNumber">15</text><text x="1033" y="1015" text-anchor="middle" dominant-baseline="middle" alignment-baseline="middle" class="messageText" dy="1em" style="font-size: 16px; font-weight: 400;">session + user, or none</text><line x1="1204" y1="1044" x2="867" y2="1044" class="messageLine1" data-et="message" data-id="i20" data-from="DB" data-to="A" stroke-width="2" stroke="none" marker-end="url(#my-svg-arrowhead)" style="stroke-dasharray: 3, 3; fill: none;"/><line x1="1199" y1="1044" x2="1199" y2="1044" stroke-width="0" marker-start="url(#my-svg-sequencenumber)"/><text x="1199" y="1048" font-family="sans-serif" font-size="12px" text-anchor="middle" class="sequenceNumber">16</text><text x="658" y="1059" text-anchor="middle" dominant-baseline="middle" alignment-baseline="middle" class="messageText" dy="1em" style="font-size: 16px; font-weight: 400;">session JSON, or null</text><line x1="868" y1="1088" x2="453" y2="1088" class="messageLine1" data-et="message" data-id="i21" data-from="A" data-to="W" stroke-width="2" stroke="none" marker-end="url(#my-svg-arrowhead)" style="stroke-dasharray: 3, 3; fill: none;"/><line x1="863" y1="1088" x2="863" y2="1088" stroke-width="0" marker-start="url(#my-svg-sequencenumber)"/><text x="863" y="1092" font-family="sans-serif" font-size="12px" text-anchor="middle" class="sequenceNumber">17</text><text x="291" y="1148" text-anchor="middle" dominant-baseline="middle" alignment-baseline="middle" class="messageText" dy="1em" style="font-size: 16px; font-weight: 400;">redirect to /sign-in?redirect=/checkout</text><line x1="454" y1="1177" x2="134" y2="1177" class="messageLine1" data-et="message" data-id="i23" data-from="W" data-to="U" stroke-width="2" stroke="none" marker-end="url(#my-svg-arrowhead)" style="stroke-dasharray: 3, 3; fill: none;"/><line x1="449" y1="1177" x2="449" y2="1177" stroke-width="0" marker-start="url(#my-svg-sequencenumber)"/><text x="449" y="1181" font-family="sans-serif" font-size="12px" text-anchor="middle" class="sequenceNumber">18</text><text x="291" y="1237" text-anchor="middle" dominant-baseline="middle" alignment-baseline="middle" class="messageText" dy="1em" style="font-size: 16px; font-weight: 400;">render CheckoutFormPage</text><line x1="454" y1="1266" x2="134" y2="1266" class="messageLine1" data-et="message" data-id="i25" data-from="W" data-to="U" stroke-width="2" stroke="none" marker-end="url(#my-svg-arrowhead)" style="stroke-dasharray: 3, 3; fill: none;"/><line x1="449" y1="1266" x2="449" y2="1266" stroke-width="0" marker-start="url(#my-svg-sequencenumber)"/><text x="449" y="1270" font-family="sans-serif" font-size="12px" text-anchor="middle" class="sequenceNumber">19</text><text x="495" y="1340" text-anchor="middle" dominant-baseline="middle" alignment-baseline="middle" class="messageText" dy="1em" style="font-size: 16px; font-weight: 400;">POST /checkout/payment-intent (cookie: session token)</text><line x1="137" y1="1369" x2="859" y2="1369" class="messageLine0" data-et="message" data-id="i28" data-from="U" data-to="A" stroke-width="2" stroke="none" marker-end="url(#my-svg-arrowhead)" style="fill: none;"/><line x1="130" y1="1369" x2="130" y2="1369" stroke-width="0" marker-start="url(#my-svg-sequencenumber)"/><text x="130" y="1373" font-family="sans-serif" font-size="12px" text-anchor="middle" class="sequenceNumber">20</text><text x="864" y="1384" text-anchor="middle" dominant-baseline="middle" alignment-baseline="middle" class="messageText" dy="1em" style="font-size: 16px; font-weight: 400;">requireAuth - auth.api.getSession(fromNodeHeaders(req))</text><path d="M 864,1413 C 924,1403 924,1443 864,1433" class="messageLine0" data-et="message" data-id="i29" data-from="A" data-to="A" stroke-width="2" stroke="none" marker-end="url(#my-svg-arrowhead)" x1="870" style="fill: none;"/><line x1="863" y1="1413" x2="863" y2="1413" stroke-width="0" marker-start="url(#my-svg-sequencenumber)"/><text x="863" y="1417" font-family="sans-serif" font-size="12px" text-anchor="middle" class="sequenceNumber">21</text><text x="1030" y="1458" text-anchor="middle" dominant-baseline="middle" alignment-baseline="middle" class="messageText" dy="1em" style="font-size: 16px; font-weight: 400;">validate session token</text><line x1="870" y1="1487" x2="1195" y2="1487" class="messageLine0" data-et="message" data-id="i30" data-from="A" data-to="DB" stroke-width="2" stroke="none" marker-end="url(#my-svg-arrowhead)" style="fill: none;"/><line x1="863" y1="1487" x2="863" y2="1487" stroke-width="0" marker-start="url(#my-svg-sequencenumber)"/><text x="863" y="1491" font-family="sans-serif" font-size="12px" text-anchor="middle" class="sequenceNumber">22</text><text x="1033" y="1502" text-anchor="middle" dominant-baseline="middle" alignment-baseline="middle" class="messageText" dy="1em" style="font-size: 16px; font-weight: 400;">session + user, or none</text><line x1="1204" y1="1531" x2="867" y2="1531" class="messageLine1" data-et="message" data-id="i31" data-from="DB" data-to="A" stroke-width="2" stroke="none" marker-end="url(#my-svg-arrowhead)" style="stroke-dasharray: 3, 3; fill: none;"/><line x1="1199" y1="1531" x2="1199" y2="1531" stroke-width="0" marker-start="url(#my-svg-sequencenumber)"/><text x="1199" y="1535" font-family="sans-serif" font-size="12px" text-anchor="middle" class="sequenceNumber">23</text><text x="498" y="1591" text-anchor="middle" dominant-baseline="middle" alignment-baseline="middle" class="messageText" dy="1em" style="font-size: 16px; font-weight: 400;">403 Forbidden, code FORBIDDEN</text><line x1="868" y1="1620" x2="134" y2="1620" class="messageLine1" data-et="message" data-id="i33" data-from="A" data-to="U" stroke-width="2" stroke="none" marker-end="url(#my-svg-arrowhead)" style="stroke-dasharray: 3, 3; fill: none;"/><line x1="863" y1="1620" x2="863" y2="1620" stroke-width="0" marker-start="url(#my-svg-sequencenumber)"/><text x="863" y="1624" font-family="sans-serif" font-size="12px" text-anchor="middle" class="sequenceNumber">24</text><text x="864" y="1680" text-anchor="middle" dominant-baseline="middle" alignment-baseline="middle" class="messageText" dy="1em" style="font-size: 16px; font-weight: 400;">req.userId = session.user.id, next()</text><path d="M 864,1709 C 924,1699 924,1739 864,1729" class="messageLine0" data-et="message" data-id="i35" data-from="A" data-to="A" stroke-width="2" stroke="none" marker-end="url(#my-svg-arrowhead)" x1="870" style="fill: none;"/><line x1="863" y1="1709" x2="863" y2="1709" stroke-width="0" marker-start="url(#my-svg-sequencenumber)"/><text x="863" y="1713" font-family="sans-serif" font-size="12px" text-anchor="middle" class="sequenceNumber">25</text><text x="495" y="1832" text-anchor="middle" dominant-baseline="middle" alignment-baseline="middle" class="messageText" dy="1em" style="font-size: 16px; font-weight: 400;">POST /order (cookie: session token)</text><line x1="137" y1="1861" x2="859" y2="1861" class="messageLine0" data-et="message" data-id="i38" data-from="U" data-to="A" stroke-width="2" stroke="none" marker-end="url(#my-svg-arrowhead)" style="fill: none;"/><line x1="130" y1="1861" x2="130" y2="1861" stroke-width="0" marker-start="url(#my-svg-sequencenumber)"/><text x="130" y="1865" font-family="sans-serif" font-size="12px" text-anchor="middle" class="sequenceNumber">26</text><text x="864" y="1876" text-anchor="middle" dominant-baseline="middle" alignment-baseline="middle" class="messageText" dy="1em" style="font-size: 16px; font-weight: 400;">requireAuth (same check, independent call)</text><path d="M 864,1905 C 924,1895 924,1935 864,1925" class="messageLine0" data-et="message" data-id="i39" data-from="A" data-to="A" stroke-width="2" stroke="none" marker-end="url(#my-svg-arrowhead)" x1="870" style="fill: none;"/><line x1="863" y1="1905" x2="863" y2="1905" stroke-width="0" marker-start="url(#my-svg-sequencenumber)"/><text x="863" y="1909" font-family="sans-serif" font-size="12px" text-anchor="middle" class="sequenceNumber">27</text><g class="actor-man actor-bottom" name="U" style="stroke: rgb(38, 35, 31);"><line id="actor-man-torso3" x1="130" y1="2048" x2="130" y2="2068"/><line id="actor-man-arms3" x1="112" y1="2056" x2="148" y2="2056"/><line x1="112" y1="2083" x2="130" y2="2068"/><line x1="130" y1="2068" x2="146" y2="2083"/><circle cx="130" cy="2033" r="15" width="260" height="65"/><text x="130" y="2090.5" dominant-baseline="central" alignment-baseline="central" class="actor actor-man" style="text-anchor: middle; font-size: 16px; font-weight: 400;"><tspan x="130" dy="0">Browser</tspan></text></g></svg>